<?xml version="1.0" encoding="UTF-8"?>
<svg xmlns="http://www.w3.org/2000/svg" viewBox="0 0 64 64" fill="none" role="img" aria-labelledby="title desc">
  <title id="title">境鉴图形标</title>
  <desc id="desc">由警务盾形、全球经纬、国门通道和证据锚点组成。</desc>
  <path d="M32 3L57 11V36c0 13-8 22-25 30C15 58 7 49 7 36V11Z" fill="#F5F8FA" stroke="#173F60" stroke-width="3" stroke-linejoin="round"/>
  <path d="M32 8l20 7v21c0 10-6 18-20 25C18 54 12 46 12 36V15Z" stroke="#2F78A8" stroke-width="1.4" stroke-linejoin="round"/>
  <circle cx="32" cy="31" r="14" fill="#fff" stroke="#173F60" stroke-width="1.8"/>
  <path d="M18 31h28M32 17c-5 4-7 9-7 14s2 10 7 14M32 17c5 4 7 9 7 14s-2 10-7 14M21 23c6 3 16 3 22 0M21 39c6-3 16-3 22 0" stroke="#2F78A8" stroke-width="1.2" stroke-linecap="round"/>
  <path d="M32 15v32M27 47h10" stroke="#173F60" stroke-width="2.6" stroke-linecap="round"/>
  <circle cx="32" cy="31" r="2.8" fill="#B58A43" stroke="#fff" stroke-width="1"/>
  <circle cx="32" cy="15" r="1.6" fill="#B58A43"/>
  <path d="M22 52h20" stroke="#B58A43" stroke-width="1.8" stroke-linecap="round"/>
</svg>
